<svg width="23" height="24" viewBox="0 0 23 24" fill="none" xmlns="http://www.w3.org/2000/svg">
<circle cx="11.3137" cy="12.0001" r="9" fill="#EA4D4D"/>
<path d="M14.2836 14.6116C14.319 14.5312 14.3382 14.4447 14.3401 14.357L14.3401 9.64295C14.3401 9.55504 14.3228 9.468 14.2892 9.38678C14.2555 9.30557 14.2062 9.23177 14.1441 9.16961C14.0185 9.04408 13.8483 8.97355 13.6707 8.97355C13.5828 8.97355 13.4958 8.99087 13.4146 9.02451C13.3334 9.05815 13.2596 9.10745 13.1974 9.16961C13.0719 9.29515 13.0013 9.46541 13.0013 9.64295L13.0061 12.7495L9.4281 9.17154C9.30307 9.04652 9.1335 8.97628 8.95669 8.97628C8.77988 8.97628 8.61031 9.04652 8.48529 9.17154C8.36026 9.29657 8.29003 9.46614 8.29003 9.64295C8.29003 9.81976 8.36026 9.98933 8.48529 10.1144L12.0632 13.6923L8.95669 13.6876C8.86868 13.6872 8.78148 13.7043 8.7001 13.7378C8.61872 13.7713 8.54479 13.8206 8.48255 13.8829C8.42032 13.9451 8.37103 14.019 8.33752 14.1004C8.30401 14.1818 8.28694 14.269 8.2873 14.357C8.28694 14.445 8.304 14.5322 8.33752 14.6136C8.37103 14.695 8.42032 14.7689 8.48255 14.8311C8.54479 14.8934 8.61872 14.9427 8.7001 14.9762C8.78148 15.0097 8.86869 15.0267 8.95669 15.0264L13.6707 15.0264C13.7585 15.0245 13.845 15.0052 13.9253 14.9698C14.0872 14.9022 14.2159 14.7735 14.2836 14.6116Z" fill="white"/>
</svg>
